<svg xmlns="http://www.w3.org/2000/svg" width="1024" height="768" viewBox="0 0 1024 768">
  <metadata><?xpacket begin="﻿" id="W5M0MpCehiHzreSzNTczkc9d"?>
<x:xmpmeta xmlns:x="adobe:ns:meta/" x:xmptk="Adobe XMP Core 5.6-c142 79.160924, 2017/07/13-01:06:39        ">
   <rdf:RDF xmlns:rdf="http://www.w3.org/1999/02/22-rdf-syntax-ns#">
      <rdf:Description rdf:about=""/>
   </rdf:RDF>
</x:xmpmeta>
                                                                                                    
                                                                                                    
                                                                                                    
                                                                                                    
                                                                                                    
                                                                                                    
                                                                                                    
                                                                                                    
                                                                                                    
                                                                                                    
                                                                                                    
                                                                                                    
                                                                                                    
                                                                                                    
                                                                                                    
                                                                                                    
                                                                                                    
                                                                                                    
                                                                                                    
                                                                                                    
                           
<?xpacket end="w"?></metadata>
<defs>
    <style>
      .cls-1 {
        fill: #00063e;
      }

      .cls-1, .cls-2, .cls-3, .cls-4 {
        fill-rule: evenodd;
      }

      .cls-2, .cls-5 {
        fill: #0d2c6c;
      }

      .cls-3 {
        fill: #5191cd;
      }

      .cls-4 {
        fill: #20419a;
      }

      .cls-5 {
        font-size: 48px;
        text-anchor: middle;
        font-family: "Agency FB";
      }
    </style>
  </defs>
  <path class="cls-1" d="M492.557,317.069l-20.271,17.973-39.978,19.1-39.791,6.927-32.847,8.425-8.821,2.247-3,34.636-12.388,27.147L334.9,450.37l-9.573,22.467,1.877,10.672-6.944,17.411-6.007,21.156,401.1,0.187-1.314-10.858,2.253-13.48-0.939-29.02-3.566-13.1,2.816-11.233L711.971,427.9l2.252-9.174-3.378-21.343-5.631-7.863-81.647-35.76L601.044,345.9l-18.582-18.722L577.77,319.5Z"/>
  <path class="cls-2" d="M491.994,316.133l85.776,2.621,8.071,11.42,10.135,12.17,9.01,6.927,9.009,6.74,8.258,6.74,7.32,7.3,5.256,3.931-12.388,9.923,19.52,12.544-3.378,38.755L633.7,453.74l-3.566,18.535-4.88,17.225-4.13,12.356-5.631,14.6-4.317,5.8H492.745l-24.963-58.038L437,390.273l22.336-13.106-17.268-10.11L458.4,342.531Z"/>
  <path class="cls-3" d="M493.12,318.754l16.7,17.973,12.388,8.612,20.271,16.1,33.221-30.7L577.4,319.5l4.5,6.553,1.5,11.233,3,17.973,1.5,18.722,4.5,39.317v25.836l-0.375,32.015-6.757,38.193-3.566,13.293H525.4l-17.268-69.085-9.76-62.157-3.942-31.079-3.566-19.1-2.252-14.6Z"/>
  <path class="cls-1" d="M513.579,469.28s0.241,1.182.65,3.185L523.9,519.83h45.609l-1.876-37.258-6.757-62.906-9.01-23.964,2.253-21.531,12.387-.561-15.015-10.485-6.194.937-7.883-1.5-7.32,1.5-6.757,4.68,1.689,5.991,6.569,7.489,3.379,4.493-2.252,5.43-2.253,11.8-5.067,14.6-3.754,8.986-4.13,15.353"/>
  <path class="cls-4" d="M491.056,301.342l92.533-19.658-4.13,8.612-1.5,16.289-0.188,11.233-0.938,12.356-8.634,8.987-3.754,4.493-4.693,5.617-15.015,12.357-12.951-9.549L514.705,340.1l-12.388-9.923-8.634-11.42Z"/>
  <path class="cls-1" d="M513.579,469.654l-0.751,3.183,8.071,31.079,9.009-35.572ZM462.151,215.782l8.446,16.289,117.5-3.932,14.828-8.8,2.44-13.48-2.628-32.39-1.126-15.352-5.443-13.1-7.883-8.238-6.757-5.617-4.5-2.059-2.815-5.617-5.631-4.493-12.012-6.178-13.89-2.434-15.578-.936-9.573-.562-14.64,3.183-9.572,3.931-5.255,2.434-7.7,6.366-8.071,7.489-4.317,7.3-5.067,8.238-2.628,4.681-1.314,10.11s0.582,8.708.939,9.922,0.375,9.736.375,9.736l0.938,12.356v10.485Z"/>
  <path class="cls-1" d="M462.339,215.033l8.07,16.289L587.718,228.7l5.631-2.622,8.821-18.16,2.252-3.557L603.484,180.4l-0.938-17.224-2.628-13.667-5.819-6.927-7.32-7.676-4.129-2.809-4.692-2.621-3.942-5.8-3.378-4.493-7.133-3.183-8.07-1.5-9.761-3.558-8.258-1.31-10.886-.375-11.262-.374-7.132,2.247-7.508,2.434-7.695,1.5-7.133,4.868-7.32,6.366-6.006,6.927-3.566,5.242-3.942,5.617-3.754,6.178-1.689,8.425,0.188,17.411,1.126,22.467Z"/>
  <path class="cls-3" d="M463.277,214.846l3.379,2.809,3,11.982,3.941-4.868-2.064-8.612-0.564-8.612,1.127-7.864,1.877-8.237-0.751-6.928,1.314-9.173,0.187-9.549,9.01-4.119,13.138-1.5,15.391-1.124h13.7l15.954-6.178,23.274-3.932L572.139,154s2.816,8.425,2.816,9.549,1.5,10.484,1.5,10.484l2.252,13.1L583.4,195l1.877,7.3s0.563,9.361.563,10.672,1.5,9.548,1.5,9.548l0.564,5.055,3.753-5.991,4.88-12.169,5.256-4.119,5.443,2.059,3.191,8.8,1.689,8.425,0.375,7.114-0.563,5.43-3,6.178-3.191,7.3-4.692,6.928-5.631,8.05-5.631,1.311-4.317,1.5L584.9,277l-2.064,6.927L577.4,288.05l-2.253,6.178-3.754,7.3-3.19,5.8-3.754,4.68-3.191,4.681-6.945,4.68-6.757,3h-7.883l-8.821-.188-5.631,1.685-7.32.562-7.7-2.059-3.566-3.183-7.32-5.617-6.944-7.489-7.508-17.6-1.689-13.668-6.57-5.055-3.19-6.552-3.942-6.553-2.815-5.242-2.628-5.8-2.065-9.361-0.751-11.233Z"/>
  <text id="YOURTEAM.SOLUTIONS" class="cls-5" transform="translate(500.742 658.414) scale(2.702 2.695)"><tspan x="0">YOURTEAM.SOLUTIONS</tspan></text>
</svg>
